REM DIRINDEX 1\2,1\3,1\4
REM DIRNAME folder01,folder02,folder03,folder04
TITLE ""
FILE "CD1-12.mp3" MP3
  TRACK 01 AUDIO
    TITLE "2:cjc031_0616"
    INDEX 01 00:00:00
  TRACK 02 AUDIO
    TITLE "3:cjc031_0617"
    INDEX 01 00:01:13
  TRACK 03 AUDIO
    TITLE "2:cjc031_0618"
    INDEX 01 00:02:61
  TRACK 04 AUDIO
    TITLE "3:cjc031_0619"
    INDEX 01 00:03:74
  TRACK 05 AUDIO
    TITLE "2:cjc031_0620"
    INDEX 01 00:05:56
  TRACK 06 AUDIO
    TITLE "3:cjc031_0621"
    INDEX 01 00:07:05
  TRACK 07 AUDIO
    TITLE "2:cjc031_0622"
    INDEX 01 00:08:64
  TRACK 08 AUDIO
    TITLE "3:cjc031_0623"
    INDEX 01 00:09:63
  TRACK 09 AUDIO
    TITLE "2:cjc031_0624"
    INDEX 01 00:11:25
  TRACK 10 AUDIO
    TITLE "3:cjc031_0625"
    INDEX 01 00:12:48
  TRACK 11 AUDIO
    TITLE "2:cjc031_0626"
    INDEX 01 00:14:19
  TRACK 12 AUDIO
    TITLE "3:cjc031_0627"
    INDEX 01 00:15:21
  TRACK 13 AUDIO
    TITLE "2:cjc031_0628"
    INDEX 01 00:16:59
  TRACK 14 AUDIO
    TITLE "3:cjc031_0629"
    INDEX 01 00:18:05
  TRACK 15 AUDIO
    TITLE "2:cjc031_0630"
    INDEX 01 00:19:42
  TRACK 16 AUDIO
    TITLE "3:cjc031_0631"
    INDEX 01 00:20:61
  TRACK 17 AUDIO
    TITLE "2:cjc031_0632"
    INDEX 01 00:22:23
  TRACK 18 AUDIO
    TITLE "3:cjc031_0633"
    INDEX 01 00:23:38
  TRACK 19 AUDIO
    TITLE "2:cjc031_0634"
    INDEX 01 00:25:09
  TRACK 20 AUDIO
    TITLE "3:cjc031_0635"
    INDEX 01 00:26:30
  TRACK 21 AUDIO
    TITLE "2:cjc031_0636"
    INDEX 01 00:28:06
  TRACK 22 AUDIO
    TITLE "3:cjc031_0637"
    INDEX 01 00:29:33
  TRACK 23 AUDIO
    TITLE "2:cjc031_0638"
    INDEX 01 00:31:20
  TRACK 24 AUDIO
    TITLE "3:cjc031_0639"
    INDEX 01 00:32:54
  TRACK 25 AUDIO
    TITLE "2:cjc031_0640"
    INDEX 01 00:34:30
  TRACK 26 AUDIO
    TITLE "3:cjc031_0641"
    INDEX 01 00:35:63
  TRACK 27 AUDIO
    TITLE "2:cjc031_0642"
    INDEX 01 00:37:28
  TRACK 28 AUDIO
    TITLE "3:cjc031_0643"
    INDEX 01 00:38:37
  TRACK 29 AUDIO
    TITLE "2:cjc031_0644"
    INDEX 01 00:39:66
  TRACK 30 AUDIO
    TITLE "3:cjc031_0645"
    INDEX 01 00:41:08
  TRACK 31 AUDIO
    TITLE "2:cjc031_0646"
    INDEX 01 00:42:41
  TRACK 32 AUDIO
    TITLE "3:cjc031_0647"
    INDEX 01 00:43:62
  TRACK 33 AUDIO
    TITLE "2:cjc031_0648"
    INDEX 01 00:45:39
  TRACK 34 AUDIO
    TITLE "3:cjc031_0649"
    INDEX 01 00:47:03
  TRACK 35 AUDIO
    TITLE "2:cjc031_0650"
    INDEX 01 00:48:36
  TRACK 36 AUDIO
    TITLE "3:cjc031_0651"
    INDEX 01 00:49:72
  TRACK 37 AUDIO
    TITLE "2:cjc031_0652"
    INDEX 01 00:51:65
  TRACK 38 AUDIO
    TITLE "3:cjc031_0653"
    INDEX 01 00:53:15
  TRACK 39 AUDIO
    TITLE "2:cjc031_0654"
    INDEX 01 00:54:46
  TRACK 40 AUDIO
    TITLE "3:cjc031_0655"
    INDEX 01 00:55:69
  TRACK 41 AUDIO
    TITLE "2:cjc031_0656"
    INDEX 01 00:57:23
  TRACK 42 AUDIO
    TITLE "3:cjc031_0657"
    INDEX 01 00:58:34
  TRACK 43 AUDIO
    TITLE "2:cjc031_0658"
    INDEX 01 00:59:61
  TRACK 44 AUDIO
    TITLE "3:cjc031_0659"
    INDEX 01 01:00:66
  TRACK 45 AUDIO
    TITLE "2:cjc031_0660"
    INDEX 01 01:02:06
  TRACK 46 AUDIO
    TITLE "3:cjc031_0661"
    INDEX 01 01:03:27
  TRACK 47 AUDIO
    TITLE "2:cjc031_0662"
    INDEX 01 01:04:62
  TRACK 48 AUDIO
    TITLE "3:cjc031_0663"
    INDEX 01 01:06:28
  TRACK 49 AUDIO
    TITLE "2:cjc031_0664"
    INDEX 01 01:08:19
  TRACK 50 AUDIO
    TITLE "3:cjc031_0665"
    INDEX 01 01:09:46
  TRACK 51 AUDIO
    TITLE "2:cjc031_0666"
    INDEX 01 01:11:37
  TRACK 52 AUDIO
    TITLE "3:cjc031_0667"
    INDEX 01 01:12:60
  TRACK 53 AUDIO
    TITLE "2:cjc031_0668"
    INDEX 01 01:14:31
  TRACK 54 AUDIO
    TITLE "3:cjc031_0669"
    INDEX 01 01:15:66
  TRACK 55 AUDIO
    TITLE "2:cjc031_0670"
    INDEX 01 01:17:28
  TRACK 56 AUDIO
    TITLE "3:cjc031_0671"
    INDEX 01 01:18:51
  TRACK 57 AUDIO
    TITLE "2:cjc031_0672"
    INDEX 01 01:20:55
  TRACK 58 AUDIO
    TITLE "3:cjc031_0673"
    INDEX 01 01:21:70
  TRACK 59 AUDIO
    TITLE "2:cjc031_0674"
    INDEX 01 01:23:24
  TRACK 60 AUDIO
    TITLE "3:cjc031_0675"
    INDEX 01 01:24:51
  TRACK 61 AUDIO
    TITLE "2:cjc031_0676"
    INDEX 01 01:26:07
  TRACK 62 AUDIO
    TITLE "3:cjc031_0677"
    INDEX 01 01:27:32
  TRACK 63 AUDIO
    TITLE "2:cjc031_0678"
    INDEX 01 01:28:65
  TRACK 64 AUDIO
    TITLE "3:cjc031_0679"
    INDEX 01 01:30:15
  TRACK 65 AUDIO
    TITLE "2:cjc031_0680"
    INDEX 01 01:31:47
  TRACK 66 AUDIO
    TITLE "3:cjc031_0681"
    INDEX 01 01:32:60
  TRACK 67 AUDIO
    TITLE "2:cjc031_0682"
    INDEX 01 01:34:30
  TRACK 68 AUDIO
    TITLE "3:cjc031_0683"
    INDEX 01 01:35:45
  TRACK 69 AUDIO
    TITLE "2:cjc031_0684"
    INDEX 01 01:37:09
  TRACK 70 AUDIO
    TITLE "3:cjc031_0685"
    INDEX 01 01:38:34
  TRACK 71 AUDIO
    TITLE "2:cjc031_0686"
    INDEX 01 01:39:70
  TRACK 72 AUDIO
    TITLE "3:cjc031_0687"
    INDEX 01 01:41:36
  TRACK 73 AUDIO
    TITLE "2:cjc031_0688"
    INDEX 01 01:43:39
  TRACK 74 AUDIO
    TITLE "3:cjc031_0689"
    INDEX 01 01:44:70
  TRACK 75 AUDIO
    TITLE "2:cjc031_0690"
    INDEX 01 01:46:35
  TRACK 76 AUDIO
    TITLE "3:cjc031_0691"
    INDEX 01 01:47:52
  TRACK 77 AUDIO
    TITLE "2:cjc031_0692"
    INDEX 01 01:49:16
  TRACK 78 AUDIO
    TITLE "3:cjc031_0693"
    INDEX 01 01:50:58
  TRACK 79 AUDIO
    TITLE "2:cjc031_0694"
    INDEX 01 01:52:06
  TRACK 80 AUDIO
    TITLE "3:cjc031_0695"
    INDEX 01 01:53:23
  TRACK 81 AUDIO
    TITLE "0:"
    INDEX 01 01:54:46
